PathFileType	4	(X/Y/Z)	c:/Users/goper/Files/vsCode/490R/osim_files/C03/C03_ROM.trc
DataRate	CameraRate	NumFrames	NumMarkers	Units                	OrigDataRate	OrigDataStartFrame	OrigNumFrames
250.00	250.00	4	36	mm	250.0	1370	3653
                Frame#	Time	LPSIS			LASIS			LTH1			LTH2			LTH3			LTH4			LLFE			LMFE			LSH1			LSH2			LSH3			LSH4			LLMAL			LMMAL			LCAL			LMTP5			LTOE			LMTP1			RPSIS			RASIS			RTH1			RTH2			RTH3			RTH4			RLFE			RMFE			RSH1			RSH2			RSH3			RSH4			RLMAL			RMMAL			RCAL			RMTP1			RTOE			RMTP5		
		X1	Y1	Z1	X2	Y2	Z2	X3	Y3	Z3	X4	Y4	Z4	X5	Y5	Z5	X6	Y6	Z6	X7	Y7	Z7	X8	Y8	Z8	X9	Y9	Z9	X10	Y10	Z10	X11	Y11	Z11	X12	Y12	Z12	X13	Y13	Z13	X14	Y14	Z14	X15	Y15	Z15	X16	Y16	Z16	X17	Y17	Z17	X18	Y18	Z18	X19	Y19	Z19	X20	Y20	Z20	X21	Y21	Z21	X22	Y22	Z22	X23	Y23	Z23	X24	Y24	Z24	X25	Y25	Z25	X26	Y26	Z26	X27	Y27	Z27	X28	Y28	Z28	X29	Y29	Z29	X30	Y30	Z30	X31	Y31	Z31	X32	Y32	Z32	X33	Y33	Z33	X34	Y34	Z34	X35	Y35	Z35	X36	Y36	Z36

1370	5.47600	-387.44614	1016.64783	513.50745	-209.20982	937.88190	513.38013	-356.51706	633.12006	392.53085	-353.40948	572.37537	378.67282	-281.23697	633.83905	382.23813	-286.84976	573.66223	370.32629	-330.45825	491.89093	352.74686	-313.80688	447.85864	453.81604	-406.49298	324.53278	295.86896	-402.75131	280.34988	281.90005	-348.01810	331.92294	280.00833	-352.51620	285.91373	267.14780	-358.54733	115.53540	229.14642	-330.45560	107.06628	305.52231	-422.31824	74.27398	269.91003	-237.93625	50.88522	172.81949	-196.17798	66.72617	218.82341	-211.87244	54.39603	262.30185	-406.49786	1032.86951	618.89642	-250.03511	1000.09064	706.51349	-414.17862	624.55548	733.00708	-416.45108	563.78174	720.54828	-358.18073	621.22559	765.42603	-352.31201	559.58459	760.39484	-360.80151	490.07361	741.93158	-339.02115	506.01178	633.81445	-453.19791	305.60379	717.27405	-449.23813	258.34137	716.61267	-400.52637	300.65741	750.12573	-405.72562	257.72049	744.93652	-397.83716	91.18784	715.49023	-358.70764	114.35144	646.42993	-442.54114	64.30240	653.15833	-237.01794	62.82452	637.62122	-220.05867	82.72324	691.92487	-272.88092	31.88182	739.44470
1371	5.48000	-385.87051	1016.48828	512.97546	-207.48395	938.45117	512.84271	-355.43515	633.29120	392.62054	-351.70703	572.70825	378.43698	-279.87991	634.02600	381.90533	-285.56476	573.88464	369.95377	-329.35590	492.08740	352.44922	-312.80753	448.08807	453.56677	-405.93451	324.76755	295.79352	-402.36053	280.70749	281.67200	-347.39639	332.04813	279.85376	-351.83112	286.14270	267.06000	-358.32773	115.71009	229.22012	-330.22101	107.19761	305.58560	-422.16177	74.61076	270.04117	-237.90007	50.82672	172.76947	-196.08318	66.66338	218.74384	-211.76303	54.36604	262.20206	-405.24557	1032.60168	618.27411	-248.67050	1000.47955	706.08948	-412.87061	624.71002	732.66284	-415.28943	563.45618	719.00934	-356.84335	621.38501	765.12433	-350.82364	559.81494	760.23352	-359.51135	490.22235	741.77869	-337.39532	506.04056	633.66431	-452.50049	305.96487	717.03271	-448.68311	258.63266	716.39655	-399.79486	300.81372	749.95538	-405.07315	257.96188	744.81152	-397.63745	91.31388	715.45856	-358.49530	114.33146	646.36047	-442.45688	64.44378	653.19836	-236.94688	62.59843	637.47980	-219.95944	82.48562	691.79816	-272.83737	31.83597	739.42316
1372	5.48400	-384.54709	1016.35132	512.43085	-205.83434	939.01392	512.29456	-353.84448	633.79486	392.22717	-350.40018	573.11493	378.08585	-278.62027	634.28607	381.56836	-284.41974	574.11554	369.59656	-328.25488	492.32861	352.18381	-311.67767	448.36490	453.29135	-405.07462	325.10547	295.59210	-401.69626	281.02652	281.49780	-346.61630	332.22516	279.67041	-351.15488	286.30551	266.91888	-358.09790	115.90331	229.27319	-329.95178	107.34534	305.64368	-421.97681	74.86557	270.13644	-237.85281	50.79735	172.71413	-195.93695	66.60938	218.64809	-211.63359	54.36845	262.11359	-404.04999	1032.37976	617.66962	-247.42416	1000.84937	705.61182	-411.31921	624.87921	732.27716	-413.83997	563.63641	718.58832	-355.40692	621.54712	764.84277	-348.82352	560.10919	760.18646	-358.08569	490.34079	741.59143	-335.91702	506.07410	633.51263	-451.65161	306.31134	716.77637	-448.06512	258.95520	716.14612	-399.01193	301.00671	749.75690	-404.38428	258.19092	744.66162	-397.43408	91.44247	715.40674	-358.29718	114.33862	646.27106	-442.38184	64.58511	653.20184	-236.86374	62.39019	637.36536	-219.83978	82.31473	691.67651	-272.77805	31.79160	739.39038
1373	5.48800	-383.15463	1016.25989	511.83154	-204.08911	939.54321	511.67871	-352.52634	634.18561	391.86057	-349.19336	573.47272	377.73373	-277.10040	634.55511	381.12137	-283.04730	574.42828	369.16641	-327.10941	492.54327	351.85931	-310.65894	448.62228	453.00595	-404.24789	325.49777	295.30670	-401.01682	281.34973	281.30264	-345.75409	332.42068	279.49167	-350.47900	286.47897	266.72961	-357.84698	116.09672	229.30273	-329.70679	107.50859	305.68259	-421.79214	75.12241	270.20886	-237.78217	50.76481	172.61797	-195.81645	66.53626	218.56505	-211.51602	54.36053	262.01917	-402.70499	1032.11609	616.97308	-245.96864	1001.25122	705.06708	-409.85556	624.98206	731.77582	-412.41324	563.88727	718.16193	-353.92239	621.77783	764.49902	-348.14954	560.14319	759.58765	-356.79739	490.41119	741.32977	-334.32172	506.04196	633.33844	-450.74521	306.59015	716.55048	-447.30255	259.29807	715.90729	-398.14621	301.21506	749.54352	-403.73160	258.34869	744.42981	-397.20758	91.59125	715.37024	-358.07825	114.31783	646.21619	-442.30341	64.73312	653.21930	-236.80495	62.16914	637.24707	-219.67972	82.06852	691.52966	-272.67062	31.75437	739.34363
